<svg id="visual" viewBox="0 0 960 540" width="960" height="540" xmlns="http://www.w3.org/2000/svg" xmlns:xlink="http://www.w3.org/1999/xlink" version="1.1"><g stroke-width="1" stroke-linejoin="bevel"><path d="M450.7 299L356 337L401.7 348Z" fill="#729f51" stroke="#729f51"></path><path d="M450.7 299L306 252L356 337Z" fill="#3e612a" stroke="#3e612a"></path><path d="M450.7 299L399.7 173L306 252Z" fill="#537b3a" stroke="#537b3a"></path><path d="M399.7 173L289 185L306 252Z" fill="#628d46" stroke="#628d46"></path><path d="M302 437L463.7 426L401.7 348Z" fill="#729f51" stroke="#729f51"></path><path d="M401.7 348L463.7 426L450.7 299Z" fill="#31501f" stroke="#31501f"></path><path d="M225.3 261L240.3 347L306 252Z" fill="#45692f" stroke="#45692f"></path><path d="M306 252L240.3 347L356 337Z" fill="#375825" stroke="#375825"></path><path d="M356 337L302 437L401.7 348Z" fill="#2a481a" stroke="#2a481a"></path><path d="M544.3 391L559.3 307L450.7 299Z" fill="#537b3a" stroke="#537b3a"></path><path d="M450.7 299L546.3 211L399.7 173Z" fill="#375825" stroke="#375825"></path><path d="M289 185L225.3 261L306 252Z" fill="#729f51" stroke="#729f51"></path><path d="M240.3 347L302 437L356 337Z" fill="#3e612a" stroke="#3e612a"></path><path d="M559.3 307L546.3 211L450.7 299Z" fill="#729f51" stroke="#729f51"></path><path d="M463.7 426L544.3 391L450.7 299Z" fill="#3e612a" stroke="#3e612a"></path><path d="M463.7 426L556.3 419L544.3 391Z" fill="#4c7235" stroke="#4c7235"></path><path d="M544.3 391L638 369L559.3 307Z" fill="#5b8440" stroke="#5b8440"></path><path d="M399.7 173L314 92L289 185Z" fill="#3e612a" stroke="#3e612a"></path><path d="M289 185L181.3 156L225.3 261Z" fill="#6a964b" stroke="#6a964b"></path><path d="M463.7 72L314 92L399.7 173Z" fill="#6a964b" stroke="#6a964b"></path><path d="M549.3 104L463.7 72L399.7 173Z" fill="#45692f" stroke="#45692f"></path><path d="M657 143L549.3 104L546.3 211Z" fill="#31501f" stroke="#31501f"></path><path d="M546.3 211L549.3 104L399.7 173Z" fill="#31501f" stroke="#31501f"></path><path d="M103.7 294L177.3 413L240.3 347Z" fill="#6a964b" stroke="#6a964b"></path><path d="M240.3 347L177.3 413L302 437Z" fill="#537b3a" stroke="#537b3a"></path><path d="M239.3 55L181.3 156L289 185Z" fill="#5b8440" stroke="#5b8440"></path><path d="M225.3 261L103.7 294L240.3 347Z" fill="#375825" stroke="#375825"></path><path d="M314 540L442.7 540L302 437Z" fill="#6a964b" stroke="#6a964b"></path><path d="M302 437L442.7 540L463.7 426Z" fill="#628d46" stroke="#628d46"></path><path d="M463.7 426L556.3 540L556.3 419Z" fill="#31501f" stroke="#31501f"></path><path d="M613 425L544.3 391L556.3 419Z" fill="#31501f" stroke="#31501f"></path><path d="M613 425L638 369L544.3 391Z" fill="#628d46" stroke="#628d46"></path><path d="M559.3 307L670 270L546.3 211Z" fill="#6a964b" stroke="#6a964b"></path><path d="M556.3 540L613 425L556.3 419Z" fill="#3e612a" stroke="#3e612a"></path><path d="M239.3 540L314 540L302 437Z" fill="#537b3a" stroke="#537b3a"></path><path d="M181.3 156L126.7 211L225.3 261Z" fill="#537b3a" stroke="#537b3a"></path><path d="M638 369L670 270L559.3 307Z" fill="#2a481a" stroke="#2a481a"></path><path d="M312 0L239.3 55L314 92Z" fill="#31501f" stroke="#31501f"></path><path d="M314 92L239.3 55L289 185Z" fill="#4c7235" stroke="#4c7235"></path><path d="M181.3 156L131.7 113L126.7 211Z" fill="#3e612a" stroke="#3e612a"></path><path d="M126.7 211L103.7 294L225.3 261Z" fill="#3e612a" stroke="#3e612a"></path><path d="M536.3 0L411.7 0L463.7 72Z" fill="#3e612a" stroke="#3e612a"></path><path d="M463.7 72L411.7 0L314 92Z" fill="#4c7235" stroke="#4c7235"></path><path d="M177.3 413L239.3 540L302 437Z" fill="#628d46" stroke="#628d46"></path><path d="M142.7 540L239.3 540L177.3 413Z" fill="#45692f" stroke="#45692f"></path><path d="M411.7 0L312 0L314 92Z" fill="#45692f" stroke="#45692f"></path><path d="M442.7 540L556.3 540L463.7 426Z" fill="#4c7235" stroke="#4c7235"></path><path d="M670 270L657 143L546.3 211Z" fill="#5b8440" stroke="#5b8440"></path><path d="M549.3 104L536.3 0L463.7 72Z" fill="#5b8440" stroke="#5b8440"></path><path d="M239.3 55L131.7 113L181.3 156Z" fill="#4c7235" stroke="#4c7235"></path><path d="M126.7 211L0 302L103.7 294Z" fill="#3e612a" stroke="#3e612a"></path><path d="M145.7 0L131.7 113L239.3 55Z" fill="#628d46" stroke="#628d46"></path><path d="M0 302L87.7 369L103.7 294Z" fill="#3e612a" stroke="#3e612a"></path><path d="M103.7 294L87.7 369L177.3 413Z" fill="#2a481a" stroke="#2a481a"></path><path d="M634 0L536.3 0L549.3 104Z" fill="#4c7235" stroke="#4c7235"></path><path d="M556.3 540L608 540L613 425Z" fill="#3e612a" stroke="#3e612a"></path><path d="M708.7 489L748.7 336L638 369Z" fill="#31501f" stroke="#31501f"></path><path d="M748.7 336L734.7 277L670 270Z" fill="#4c7235" stroke="#4c7235"></path><path d="M745.7 98L669 107L657 143Z" fill="#375825" stroke="#375825"></path><path d="M657 143L669 107L549.3 104Z" fill="#729f51" stroke="#729f51"></path><path d="M87.7 369L86.7 436L177.3 413Z" fill="#45692f" stroke="#45692f"></path><path d="M312 0L211.3 0L239.3 55Z" fill="#628d46" stroke="#628d46"></path><path d="M748.7 336L670 270L638 369Z" fill="#3e612a" stroke="#3e612a"></path><path d="M670 270L734.7 277L657 143Z" fill="#628d46" stroke="#628d46"></path><path d="M86.7 436L142.7 540L177.3 413Z" fill="#45692f" stroke="#45692f"></path><path d="M708.7 489L638 369L613 425Z" fill="#628d46" stroke="#628d46"></path><path d="M608 540L708.7 489L613 425Z" fill="#4c7235" stroke="#4c7235"></path><path d="M741.7 0L634 0L669 107Z" fill="#729f51" stroke="#729f51"></path><path d="M669 107L634 0L549.3 104Z" fill="#628d46" stroke="#628d46"></path><path d="M211.3 0L145.7 0L239.3 55Z" fill="#6a964b" stroke="#6a964b"></path><path d="M0 144L0 302L126.7 211Z" fill="#3e612a" stroke="#3e612a"></path><path d="M87.7 369L0 375L86.7 436Z" fill="#2a481a" stroke="#2a481a"></path><path d="M86.7 436L0 483L142.7 540Z" fill="#628d46" stroke="#628d46"></path><path d="M0 144L126.7 211L131.7 113Z" fill="#729f51" stroke="#729f51"></path><path d="M0 302L0 375L87.7 369Z" fill="#628d46" stroke="#628d46"></path><path d="M772.7 148L745.7 98L657 143Z" fill="#5b8440" stroke="#5b8440"></path><path d="M772.7 148L657 143L734.7 277Z" fill="#3e612a" stroke="#3e612a"></path><path d="M830.3 296L772.7 148L734.7 277Z" fill="#4c7235" stroke="#4c7235"></path><path d="M0 52L0 144L131.7 113Z" fill="#45692f" stroke="#45692f"></path><path d="M608 540L746.7 540L708.7 489Z" fill="#5b8440" stroke="#5b8440"></path><path d="M857.3 417L833.3 348L748.7 336Z" fill="#5b8440" stroke="#5b8440"></path><path d="M748.7 336L830.3 296L734.7 277Z" fill="#628d46" stroke="#628d46"></path><path d="M0 375L0 483L86.7 436Z" fill="#3e612a" stroke="#3e612a"></path><path d="M833.3 348L830.3 296L748.7 336Z" fill="#729f51" stroke="#729f51"></path><path d="M857.3 417L748.7 336L708.7 489Z" fill="#6a964b" stroke="#6a964b"></path><path d="M891.3 125L745.7 98L772.7 148Z" fill="#6a964b" stroke="#6a964b"></path><path d="M879.3 0L741.7 0L745.7 98Z" fill="#31501f" stroke="#31501f"></path><path d="M745.7 98L741.7 0L669 107Z" fill="#375825" stroke="#375825"></path><path d="M145.7 0L0 52L131.7 113Z" fill="#628d46" stroke="#628d46"></path><path d="M0 483L0 540L142.7 540Z" fill="#45692f" stroke="#45692f"></path><path d="M960 262L887.3 218L830.3 296Z" fill="#2a481a" stroke="#2a481a"></path><path d="M746.7 540L857.3 417L708.7 489Z" fill="#45692f" stroke="#45692f"></path><path d="M145.7 0L0 0L0 52Z" fill="#45692f" stroke="#45692f"></path><path d="M960 262L830.3 296L960 352Z" fill="#4c7235" stroke="#4c7235"></path><path d="M830.3 296L887.3 218L772.7 148Z" fill="#375825" stroke="#375825"></path><path d="M887.3 218L891.3 125L772.7 148Z" fill="#4c7235" stroke="#4c7235"></path><path d="M746.7 540L861.3 540L857.3 417Z" fill="#45692f" stroke="#45692f"></path><path d="M960 352L830.3 296L833.3 348Z" fill="#729f51" stroke="#729f51"></path><path d="M891.3 125L879.3 0L745.7 98Z" fill="#537b3a" stroke="#537b3a"></path><path d="M960 352L833.3 348L857.3 417Z" fill="#6a964b" stroke="#6a964b"></path><path d="M887.3 218L960 211L891.3 125Z" fill="#4c7235" stroke="#4c7235"></path><path d="M891.3 125L960 52L879.3 0Z" fill="#5b8440" stroke="#5b8440"></path><path d="M960 435L960 352L857.3 417Z" fill="#375825" stroke="#375825"></path><path d="M960 262L960 211L887.3 218Z" fill="#3e612a" stroke="#3e612a"></path><path d="M861.3 540L960 435L857.3 417Z" fill="#2a481a" stroke="#2a481a"></path><path d="M960 211L960 52L891.3 125Z" fill="#5b8440" stroke="#5b8440"></path><path d="M861.3 540L960 540L960 435Z" fill="#375825" stroke="#375825"></path><path d="M960 52L960 0L879.3 0Z" fill="#628d46" stroke="#628d46"></path></g></svg>