<svg id="visual" viewBox="0 0 960 540" width="960" height="540" xmlns="http://www.w3.org/2000/svg" xmlns:xlink="http://www.w3.org/1999/xlink" version="1.1"><rect x="0" y="0" width="960" height="540" fill="#111111"></rect><defs><linearGradient id="grad1_0" x1="43.8%" y1="100%" x2="100%" y2="0%"><stop offset="14.444444444444446%" stop-color="#111111" stop-opacity="1"></stop><stop offset="85.55555555555554%" stop-color="#111111" stop-opacity="1"></stop></linearGradient></defs><defs><linearGradient id="grad2_0" x1="0%" y1="100%" x2="56.3%" y2="0%"><stop offset="14.444444444444446%" stop-color="#111111" stop-opacity="1"></stop><stop offset="85.55555555555554%" stop-color="#111111" stop-opacity="1"></stop></linearGradient></defs><g transform="translate(960, 540)"><path d="M-486 0C-481.4 -65.7 -476.8 -131.5 -449 -186C-421.3 -240.5 -370.4 -283.9 -321.7 -321.7C-273.1 -359.6 -226.6 -392 -173.4 -418.5C-120.1 -445 -60.1 -465.5 0 -486L0 0Z" fill="#daf9a4"></path></g><g transform="translate(0, 0)"><path d="M486 0C478.1 65.4 470.1 130.8 441.6 182.9C413.1 235.1 364 274 320.3 320.3C276.7 366.6 238.5 420.2 186 449C133.5 477.8 66.8 481.9 0 486L0 0Z" fill="#daf9a4"></path></g></svg>