<svg id="visual" viewBox="0 0 960 540" width="960" height="540" xmlns="http://www.w3.org/2000/svg" xmlns:xlink="http://www.w3.org/1999/xlink" version="1.1"><g stroke-width="1" stroke-linejoin="bevel"><path d="M433.7 260L524.3 234L465.7 187Z" fill="#779866" stroke="#779866"></path><path d="M433.7 260L537.3 322L524.3 234Z" fill="#6a875b" stroke="#6a875b"></path><path d="M624 253L572.3 147L524.3 234Z" fill="#506845" stroke="#506845"></path><path d="M524.3 234L572.3 147L465.7 187Z" fill="#6a875b" stroke="#6a875b"></path><path d="M537.3 322L624 253L524.3 234Z" fill="#506845" stroke="#506845"></path><path d="M396.7 50L337 176L465.7 187Z" fill="#85a872" stroke="#85a872"></path><path d="M465.7 187L337 176L433.7 260Z" fill="#85a872" stroke="#85a872"></path><path d="M288 333L461.7 391L433.7 260Z" fill="#779866" stroke="#779866"></path><path d="M433.7 260L461.7 391L537.3 322Z" fill="#44593a" stroke="#44593a"></path><path d="M537.3 322L607 387L624 253Z" fill="#44593a" stroke="#44593a"></path><path d="M624 253L611 154L572.3 147Z" fill="#212f1c" stroke="#212f1c"></path><path d="M611 154L567.3 101L572.3 147Z" fill="#506845" stroke="#506845"></path><path d="M572.3 147L567.3 101L465.7 187Z" fill="#172213" stroke="#172213"></path><path d="M337 176L301 246L433.7 260Z" fill="#6a875b" stroke="#6a875b"></path><path d="M567.3 101L396.7 50L465.7 187Z" fill="#6a875b" stroke="#6a875b"></path><path d="M205.3 150L214.3 270L301 246Z" fill="#2d3d26" stroke="#2d3d26"></path><path d="M533.3 462L607 387L537.3 322Z" fill="#212f1c" stroke="#212f1c"></path><path d="M611 154L652 129L567.3 101Z" fill="#44593a" stroke="#44593a"></path><path d="M624 253L652 129L611 154Z" fill="#0b1604" stroke="#0b1604"></path><path d="M750.7 180L652 129L624 253Z" fill="#172213" stroke="#172213"></path><path d="M301 246L288 333L433.7 260Z" fill="#2d3d26" stroke="#2d3d26"></path><path d="M295 427L449.7 454L461.7 391Z" fill="#506845" stroke="#506845"></path><path d="M461.7 391L533.3 462L537.3 322Z" fill="#2d3d26" stroke="#2d3d26"></path><path d="M449.7 454L533.3 462L461.7 391Z" fill="#0b1604" stroke="#0b1604"></path><path d="M602 0L518.3 0L567.3 101Z" fill="#0b1604" stroke="#0b1604"></path><path d="M567.3 101L518.3 0L396.7 50Z" fill="#0b1604" stroke="#0b1604"></path><path d="M533.3 462L613 434L607 387Z" fill="#506845" stroke="#506845"></path><path d="M767.7 390L755.7 233L624 253Z" fill="#779866" stroke="#779866"></path><path d="M332 0L300 66L396.7 50Z" fill="#44593a" stroke="#44593a"></path><path d="M396.7 50L300 66L337 176Z" fill="#506845" stroke="#506845"></path><path d="M301 246L235.3 325L288 333Z" fill="#85a872" stroke="#85a872"></path><path d="M518.3 0L392.7 0L396.7 50Z" fill="#779866" stroke="#779866"></path><path d="M214.3 270L235.3 325L301 246Z" fill="#172213" stroke="#172213"></path><path d="M288 333L295 427L461.7 391Z" fill="#384b30" stroke="#384b30"></path><path d="M205.3 150L301 246L337 176Z" fill="#384b30" stroke="#384b30"></path><path d="M235.3 325L295 427L288 333Z" fill="#44593a" stroke="#44593a"></path><path d="M652 129L602 0L567.3 101Z" fill="#212f1c" stroke="#212f1c"></path><path d="M392.7 0L332 0L396.7 50Z" fill="#85a872" stroke="#85a872"></path><path d="M767.7 390L624 253L607 387Z" fill="#85a872" stroke="#85a872"></path><path d="M652 129L747.7 0L602 0Z" fill="#384b30" stroke="#384b30"></path><path d="M755.7 233L750.7 180L624 253Z" fill="#5d7850" stroke="#5d7850"></path><path d="M213.3 51L205.3 150L300 66Z" fill="#44593a" stroke="#44593a"></path><path d="M300 66L205.3 150L337 176Z" fill="#44593a" stroke="#44593a"></path><path d="M449.7 454L547.3 540L533.3 462Z" fill="#506845" stroke="#506845"></path><path d="M533.3 462L601 540L613 434Z" fill="#2d3d26" stroke="#2d3d26"></path><path d="M613 434L767.7 390L607 387Z" fill="#779866" stroke="#779866"></path><path d="M386.7 540L547.3 540L449.7 454Z" fill="#172213" stroke="#172213"></path><path d="M295 427L386.7 540L449.7 454Z" fill="#44593a" stroke="#44593a"></path><path d="M235.3 0L213.3 51L300 66Z" fill="#172213" stroke="#172213"></path><path d="M833.3 112L763.7 85L750.7 180Z" fill="#506845" stroke="#506845"></path><path d="M750.7 180L763.7 85L652 129Z" fill="#85a872" stroke="#85a872"></path><path d="M547.3 540L601 540L533.3 462Z" fill="#172213" stroke="#172213"></path><path d="M775.7 416L767.7 390L613 434Z" fill="#5d7850" stroke="#5d7850"></path><path d="M870.3 162L833.3 112L750.7 180Z" fill="#384b30" stroke="#384b30"></path><path d="M332 0L235.3 0L300 66Z" fill="#384b30" stroke="#384b30"></path><path d="M214.3 270L132.7 272L235.3 325Z" fill="#85a872" stroke="#85a872"></path><path d="M235.3 325L192.3 441L295 427Z" fill="#212f1c" stroke="#212f1c"></path><path d="M295 427L307 540L386.7 540Z" fill="#506845" stroke="#506845"></path><path d="M132.7 157L132.7 272L214.3 270Z" fill="#212f1c" stroke="#212f1c"></path><path d="M132.7 157L214.3 270L205.3 150Z" fill="#44593a" stroke="#44593a"></path><path d="M192.3 441L307 540L295 427Z" fill="#384b30" stroke="#384b30"></path><path d="M108.7 354L192.3 441L235.3 325Z" fill="#85a872" stroke="#85a872"></path><path d="M762.7 540L775.7 416L613 434Z" fill="#44593a" stroke="#44593a"></path><path d="M767.7 390L843.3 308L755.7 233Z" fill="#85a872" stroke="#85a872"></path><path d="M85.7 83L132.7 157L213.3 51Z" fill="#44593a" stroke="#44593a"></path><path d="M213.3 51L132.7 157L205.3 150Z" fill="#506845" stroke="#506845"></path><path d="M763.7 85L747.7 0L652 129Z" fill="#384b30" stroke="#384b30"></path><path d="M877.3 333L843.3 308L767.7 390Z" fill="#5d7850" stroke="#5d7850"></path><path d="M763.7 85L843.3 0L747.7 0Z" fill="#6a875b" stroke="#6a875b"></path><path d="M870.3 162L750.7 180L755.7 233Z" fill="#5d7850" stroke="#5d7850"></path><path d="M0 251L108.7 354L132.7 272Z" fill="#172213" stroke="#172213"></path><path d="M132.7 272L108.7 354L235.3 325Z" fill="#44593a" stroke="#44593a"></path><path d="M843.3 308L870.3 162L755.7 233Z" fill="#506845" stroke="#506845"></path><path d="M235.3 0L145.7 0L213.3 51Z" fill="#6a875b" stroke="#6a875b"></path><path d="M0 186L0 251L132.7 272Z" fill="#506845" stroke="#506845"></path><path d="M875.3 417L877.3 333L767.7 390Z" fill="#779866" stroke="#779866"></path><path d="M843.3 308L960 245L870.3 162Z" fill="#85a872" stroke="#85a872"></path><path d="M192.3 441L192.3 540L307 540Z" fill="#384b30" stroke="#384b30"></path><path d="M113.7 449L192.3 540L192.3 441Z" fill="#172213" stroke="#172213"></path><path d="M145.7 0L85.7 83L213.3 51Z" fill="#6a875b" stroke="#6a875b"></path><path d="M601 540L762.7 540L613 434Z" fill="#212f1c" stroke="#212f1c"></path><path d="M775.7 416L875.3 417L767.7 390Z" fill="#5d7850" stroke="#5d7850"></path><path d="M0 356L113.7 449L108.7 354Z" fill="#5d7850" stroke="#5d7850"></path><path d="M108.7 354L113.7 449L192.3 441Z" fill="#384b30" stroke="#384b30"></path><path d="M960 81L843.3 0L833.3 112Z" fill="#6a875b" stroke="#6a875b"></path><path d="M833.3 112L843.3 0L763.7 85Z" fill="#0b1604" stroke="#0b1604"></path><path d="M844.3 540L875.3 417L775.7 416Z" fill="#5d7850" stroke="#5d7850"></path><path d="M0 186L132.7 272L132.7 157Z" fill="#5d7850" stroke="#5d7850"></path><path d="M0 93L0 186L85.7 83Z" fill="#2d3d26" stroke="#2d3d26"></path><path d="M85.7 83L0 186L132.7 157Z" fill="#384b30" stroke="#384b30"></path><path d="M762.7 540L844.3 540L775.7 416Z" fill="#2d3d26" stroke="#2d3d26"></path><path d="M877.3 333L960 245L843.3 308Z" fill="#384b30" stroke="#384b30"></path><path d="M870.3 162L960 81L833.3 112Z" fill="#5d7850" stroke="#5d7850"></path><path d="M960 325L960 245L877.3 333Z" fill="#0b1604" stroke="#0b1604"></path><path d="M960 325L877.3 333L875.3 417Z" fill="#506845" stroke="#506845"></path><path d="M960 245L960 172L870.3 162Z" fill="#506845" stroke="#506845"></path><path d="M0 482L91.7 540L113.7 449Z" fill="#212f1c" stroke="#212f1c"></path><path d="M113.7 449L91.7 540L192.3 540Z" fill="#212f1c" stroke="#212f1c"></path><path d="M0 251L0 356L108.7 354Z" fill="#0b1604" stroke="#0b1604"></path><path d="M960 464L960 325L875.3 417Z" fill="#44593a" stroke="#44593a"></path><path d="M0 0L0 93L85.7 83Z" fill="#85a872" stroke="#85a872"></path><path d="M960 172L960 81L870.3 162Z" fill="#172213" stroke="#172213"></path><path d="M145.7 0L0 0L85.7 83Z" fill="#212f1c" stroke="#212f1c"></path><path d="M0 356L0 482L113.7 449Z" fill="#5d7850" stroke="#5d7850"></path><path d="M844.3 540L960 464L875.3 417Z" fill="#44593a" stroke="#44593a"></path><path d="M960 81L960 0L843.3 0Z" fill="#2d3d26" stroke="#2d3d26"></path><path d="M0 482L0 540L91.7 540Z" fill="#779866" stroke="#779866"></path><path d="M844.3 540L960 540L960 464Z" fill="#0b1604" stroke="#0b1604"></path></g></svg>