<svg id="visual" viewBox="0 0 1600 540" width="1600" height="540" xmlns="http://www.w3.org/2000/svg" xmlns:xlink="http://www.w3.org/1999/xlink" version="1.1"><g stroke-width="1" stroke-linejoin="bevel"><path d="M909.9 284L896.9 374L1027.7 419Z" fill="#1f1f1f" stroke="#1f1f1f"></path><path d="M1027.7 419L1039.7 269L909.9 284Z" fill="#323232" stroke="#323232"></path><path d="M896.9 374L913.9 540L1027.7 419Z" fill="#131313" stroke="#131313"></path><path d="M913.9 540L1052.7 540L1027.7 419Z" fill="#252525" stroke="#252525"></path><path d="M1027.7 419L1236.4 264L1039.7 269Z" fill="#3f3f3f" stroke="#3f3f3f"></path><path d="M1237.4 152L1063.7 112L1039.7 269Z" fill="#323232" stroke="#323232"></path><path d="M1039.7 269L869.9 103L909.9 284Z" fill="#3f3f3f" stroke="#3f3f3f"></path><path d="M1063.7 112L869.9 103L1039.7 269Z" fill="#2b2b2b" stroke="#2b2b2b"></path><path d="M679.1 273L694.1 435L896.9 374Z" fill="#252525" stroke="#252525"></path><path d="M1259.4 443L1236.4 264L1027.7 419Z" fill="#3f3f3f" stroke="#3f3f3f"></path><path d="M1225.4 540L1259.4 443L1027.7 419Z" fill="#131313" stroke="#131313"></path><path d="M679.1 273L896.9 374L909.9 284Z" fill="#131313" stroke="#131313"></path><path d="M896.9 374L745.1 540L913.9 540Z" fill="#2b2b2b" stroke="#2b2b2b"></path><path d="M694.1 435L745.1 540L896.9 374Z" fill="#000000" stroke="#000000"></path><path d="M869.9 103L679.1 273L909.9 284Z" fill="#191919" stroke="#191919"></path><path d="M1052.7 540L1225.4 540L1027.7 419Z" fill="#464646" stroke="#464646"></path><path d="M1382.2 127L1237.4 152L1236.4 264Z" fill="#323232" stroke="#323232"></path><path d="M1236.4 264L1237.4 152L1039.7 269Z" fill="#252525" stroke="#252525"></path><path d="M1063.7 112L907.9 0L869.9 103Z" fill="#383838" stroke="#383838"></path><path d="M869.9 103L689.1 99L679.1 273Z" fill="#3f3f3f" stroke="#3f3f3f"></path><path d="M1056.7 0L907.9 0L1063.7 112Z" fill="#2b2b2b" stroke="#2b2b2b"></path><path d="M1204.4 0L1056.7 0L1063.7 112Z" fill="#0b0b0b" stroke="#0b0b0b"></path><path d="M676.1 0L689.1 99L869.9 103Z" fill="#1f1f1f" stroke="#1f1f1f"></path><path d="M1237.4 152L1204.4 0L1063.7 112Z" fill="#3f3f3f" stroke="#3f3f3f"></path><path d="M1259.4 443L1389.2 305L1236.4 264Z" fill="#3f3f3f" stroke="#3f3f3f"></path><path d="M1237.4 152L1382.2 127L1204.4 0Z" fill="#2b2b2b" stroke="#2b2b2b"></path><path d="M1415.2 407L1389.2 305L1259.4 443Z" fill="#3f3f3f" stroke="#3f3f3f"></path><path d="M679.1 273L571.3 390L694.1 435Z" fill="#252525" stroke="#252525"></path><path d="M694.1 435L513.3 540L745.1 540Z" fill="#464646" stroke="#464646"></path><path d="M506.3 241L571.3 390L679.1 273Z" fill="#2b2b2b" stroke="#2b2b2b"></path><path d="M1434.2 540L1415.2 407L1259.4 443Z" fill="#3f3f3f" stroke="#3f3f3f"></path><path d="M1407.2 0L1382.2 127L1600 164Z" fill="#3f3f3f" stroke="#3f3f3f"></path><path d="M1389.2 305L1382.2 127L1236.4 264Z" fill="#0b0b0b" stroke="#0b0b0b"></path><path d="M907.9 0L676.1 0L869.9 103Z" fill="#000000" stroke="#000000"></path><path d="M546.3 110L506.3 241L679.1 273Z" fill="#3f3f3f" stroke="#3f3f3f"></path><path d="M546.3 110L679.1 273L689.1 99Z" fill="#191919" stroke="#191919"></path><path d="M570.3 0L546.3 110L689.1 99Z" fill="#323232" stroke="#323232"></path><path d="M1225.4 540L1434.2 540L1259.4 443Z" fill="#2b2b2b" stroke="#2b2b2b"></path><path d="M1600 232L1382.2 127L1389.2 305Z" fill="#383838" stroke="#383838"></path><path d="M388.6 397L513.3 540L571.3 390Z" fill="#464646" stroke="#464646"></path><path d="M571.3 390L513.3 540L694.1 435Z" fill="#2b2b2b" stroke="#2b2b2b"></path><path d="M354.6 290L388.6 397L506.3 241Z" fill="#131313" stroke="#131313"></path><path d="M676.1 0L570.3 0L689.1 99Z" fill="#191919" stroke="#191919"></path><path d="M1600 380L1389.2 305L1415.2 407Z" fill="#383838" stroke="#383838"></path><path d="M1382.2 127L1407.2 0L1204.4 0Z" fill="#383838" stroke="#383838"></path><path d="M506.3 241L388.6 397L571.3 390Z" fill="#383838" stroke="#383838"></path><path d="M354.6 290L506.3 241L342.6 147Z" fill="#323232" stroke="#323232"></path><path d="M1600 540L1600 380L1415.2 407Z" fill="#464646" stroke="#464646"></path><path d="M1600 380L1600 232L1389.2 305Z" fill="#464646" stroke="#464646"></path><path d="M342.6 147L506.3 241L546.3 110Z" fill="#464646" stroke="#464646"></path><path d="M193.8 540L376.6 540L388.6 397Z" fill="#131313" stroke="#131313"></path><path d="M388.6 397L376.6 540L513.3 540Z" fill="#1f1f1f" stroke="#1f1f1f"></path><path d="M1600 232L1600 164L1382.2 127Z" fill="#3f3f3f" stroke="#3f3f3f"></path><path d="M1434.2 540L1600 540L1415.2 407Z" fill="#1f1f1f" stroke="#1f1f1f"></path><path d="M333.6 0L342.6 147L546.3 110Z" fill="#000000" stroke="#000000"></path><path d="M1600 164L1600 0L1407.2 0Z" fill="#1f1f1f" stroke="#1f1f1f"></path><path d="M570.3 0L333.6 0L546.3 110Z" fill="#383838" stroke="#383838"></path><path d="M354.6 290L173.8 375L388.6 397Z" fill="#0b0b0b" stroke="#0b0b0b"></path><path d="M170.8 304L173.8 375L354.6 290Z" fill="#0b0b0b" stroke="#0b0b0b"></path><path d="M170.8 304L354.6 290L342.6 147Z" fill="#131313" stroke="#131313"></path><path d="M161.8 137L170.8 304L342.6 147Z" fill="#0b0b0b" stroke="#0b0b0b"></path><path d="M173.8 375L193.8 540L388.6 397Z" fill="#383838" stroke="#383838"></path><path d="M333.6 0L161.8 137L342.6 147Z" fill="#252525" stroke="#252525"></path><path d="M170.8 304L0 374L173.8 375Z" fill="#2b2b2b" stroke="#2b2b2b"></path><path d="M333.6 0L156.8 0L161.8 137Z" fill="#464646" stroke="#464646"></path><path d="M0 236L0 374L170.8 304Z" fill="#191919" stroke="#191919"></path><path d="M173.8 375L0 540L193.8 540Z" fill="#464646" stroke="#464646"></path><path d="M0 236L170.8 304L161.8 137Z" fill="#323232" stroke="#323232"></path><path d="M0 155L0 236L161.8 137Z" fill="#2b2b2b" stroke="#2b2b2b"></path><path d="M0 0L0 155L161.8 137Z" fill="#323232" stroke="#323232"></path><path d="M0 374L0 540L173.8 375Z" fill="#131313" stroke="#131313"></path><path d="M156.8 0L0 0L161.8 137Z" fill="#323232" stroke="#323232"></path></g></svg>