<svg width="0" height="0" class="hidden">
  <symbol xmlns="http://www.w3.org/2000/svg" id="chat-arrow-grow" viewBox="0 0 24 24">
    <path d="M22.5,3.976H19.414a1,1,0,0,0-.707,1.707l1.086,1.086h0l-3.586,3.585a1.024,1.024,0,0,1-1.415,0l-.17-.171a3.071,3.071,0,0,0-4.243,0l-5.1,5.1A1,1,0,1,0,6.7,16.7l5.1-5.1a1.023,1.023,0,0,1,1.415,0l.17.171a3.073,3.073,0,0,0,4.243,0l3.586-3.586h0l1.086,1.086A1,1,0,0,0,24,8.562V5.476A1.5,1.5,0,0,0,22.5,3.976Z"></path>
    <path d="M23,21.976H5a3,3,0,0,1-3-3V1A1,1,0,0,0,0,1V18.976a5.006,5.006,0,0,0,5,5H23a1,1,0,0,0,0-2Z"></path>
  </symbol>
  <symbol xmlns="http://www.w3.org/2000/svg" id="handshake" viewBox="0 0 24 24">
    <path d="M23,15h-.667c-.25,0-.498,.019-.745,.057l-7.046-5.284,1.688-1.616c.399-.382,.413-1.016,.031-1.414-.383-.399-1.017-.412-1.414-.031l-4.173,3.995c-.208,.208-.491,.315-.788,.29-.298-.024-.56-.175-.739-.425-.274-.38-.19-.975,.168-1.334l4.703-4.429c.891-.837,2.284-1.042,3.374-.495l2.316,1.158c.69,.345,1.464,.527,2.235,.527h1.056c.553,0,1-.447,1-1s-.447-1-1-1h-1.056c-.463,0-.928-.109-1.342-.316l-2.314-1.158c-1.824-.913-4.153-.574-5.641,.828l-.618,.582-.7-.638c-.919-.837-2.109-1.298-3.39-1.298-.771,0-1.54,.182-2.227,.525l-2.314,1.158c-.415,.207-.88,.316-1.343,.316H1c-.553,0-1,.447-1,1s.447,1,1,1h1.056c.771,0,1.545-.183,2.236-.527l2.316-1.158c1.022-.514,2.458-.375,3.374,.462l.587,.535-2.646,2.492c-1.073,1.072-1.244,2.767-.398,3.938,.52,.723,1.553,1.259,2.444,1.259,.793,0,1.554-.312,2.104-.863l1.006-.963,6.346,4.759c-.031,.022-6.198,4.646-6.198,4.646-.723,.562-1.732,.562-2.47-.011l-6.091-4.568c-.859-.645-1.925-1-3-1h-.667c-.553,0-1,.447-1,1s.447,1,1,1h.667c.645,0,1.284,.213,1.8,.6l6.077,4.558c.725,.564,1.594,.846,2.461,.846,.862,0,1.723-.279,2.437-.835l6.093-4.568c.515-.387,1.154-.6,1.799-.6h.667c.553,0,1-.447,1-1s-.447-1-1-1Z"></path>
  </symbol>
  <symbol xmlns="http://www.w3.org/2000/svg" id="hand-holding-heart" viewBox="0 0 24 24">
    <path d="M8.965,24H4a4,4,0,0,1-4-4V15a4,4,0,0,1,4-4h8.857a3.144,3.144,0,0,1,2.69,1.519l3.217-3.535a3.01,3.01,0,0,1,4.254-.2,3.022,3.022,0,0,1,.217,4.23l-6.8,7.637A10.012,10.012,0,0,1,8.965,24ZM4,13a2,2,0,0,0-2,2v5a2,2,0,0,0,2,2H8.965a8.005,8.005,0,0,0,5.972-2.678l6.805-7.638a1.015,1.015,0,0,0-.072-1.421A1.029,1.029,0,0,0,20.942,10a1,1,0,0,0-.7.329L15.816,15.2A3.158,3.158,0,0,1,13.3,17.252l-5.161.738a1,1,0,0,1-.284-1.98l5.162-.737A1.142,1.142,0,0,0,12.857,13Zm7-3.926a1.986,1.986,0,0,1-1.247-.436C8.041,7.264,6,5.2,6,3.2A3.109,3.109,0,0,1,9,0a2.884,2.884,0,0,1,2,.817A2.884,2.884,0,0,1,13,0a3.109,3.109,0,0,1,3,3.2c0,2-2.041,4.064-3.754,5.439A1.986,1.986,0,0,1,11,9.074ZM9,2A1.115,1.115,0,0,0,8,3.2c0,.9,1.151,2.39,3.006,3.879C12.849,5.59,14,4.1,14,3.2A1.115,1.115,0,0,0,13,2a1.115,1.115,0,0,0-1,1.2,1,1,0,0,1-2,0A1.115,1.115,0,0,0,9,2Z"></path>
  </symbol>
  <symbol xmlns="http://www.w3.org/2000/svg" id="hand-holding-seeding" viewBox="0 0 24 24">
    <path d="M23.047,17.197l-4.318,3.935c-2.031,1.85-4.662,2.868-7.408,2.868H1c-.553,0-1-.447-1-1s.447-1,1-1H11.32c2.247,0,4.399-.833,6.061-2.347l4.284-3.902c.347-.348,.43-.944,.156-1.324-.18-.249-.442-.399-.74-.424-.291-.019-.58,.082-.788,.29l-4.234,3.886c-.538,.508-1.262,.821-2.059,.821h-5c-.553,0-1-.447-1-1s.447-1,1-1h5c.252,0,1-.115,1-1,0-.552-.448-1-1-1h-4.912c-2.403,0-4.664,.937-6.364,2.636l-.998,1.053c-.197,.207-.461,.312-.726,.312-.247,0-.495-.091-.688-.274-.4-.381-.417-1.014-.037-1.414l1.017-1.071c2.097-2.096,4.859-3.24,7.797-3.24h4.912c1.236,0,2.3,.752,2.759,1.822l2.151-1.974c.591-.593,1.456-.915,2.331-.839,.88,.07,1.683,.525,2.203,1.248,.844,1.174,.673,2.866-.397,3.939ZM4.006,2.162c-.042-.581,.172-1.153,.588-1.568C5.009,.178,5.581-.04,6.163,.006c2.877,.203,4.785,1.195,5.837,3.112C13.053,1.201,14.96,.209,17.838,.006c.591-.048,1.154,.172,1.568,.588,.416,.415,.63,.987,.588,1.569-.311,4.413-2.48,6.545-6.994,6.808v1.028c0,.553-.447,1-1,1s-1-.447-1-1v-1.028c-4.514-.264-6.683-2.395-6.994-6.809ZM13.032,6.968c3.361-.224,4.734-1.637,4.968-4.946-3.329,.214-4.744,1.585-4.968,4.946ZM6.021,2c.214,3.329,1.585,4.744,4.946,4.968-.224-3.361-1.637-4.734-4.946-4.968Z"></path>
  </symbol>
  <symbol xmlns="http://www.w3.org/2000/svg" id="mind-share" viewBox="0 0 24 24">
    <path d="M23.414,16.586c.78,.779,.78,2.049,0,2.828l-3.293,3.293-1.414-1.414,2.293-2.293h-3c-1.103,0-2,.897-2,2v3h-2v-3c0-2.206,1.794-4,4-4h3l-2.293-2.293,1.414-1.414,3.293,3.293ZM15,2c-1.103,0-2,.897-2,2v14.5c0,3.032-2.468,5.5-5.5,5.5-2.422,0-4.515-1.556-5.233-3.835-1.408-.921-2.267-2.479-2.267-4.165,0-.886,.235-1.737,.686-2.5-.45-.763-.686-1.614-.686-2.5,0-1.568,.752-3.04,2-3.979v-.021c0-1.897,1.327-3.489,3.102-3.898,.409-1.774,2.002-3.102,3.898-3.102,1.201,0,2.266,.542,3,1.382,.734-.84,1.799-1.382,3-1.382,1.896,0,3.489,1.327,3.898,3.102,1.774,.409,3.102,2.001,3.102,3.898v.021c1.248,.939,2,2.41,2,3.979,0,.922-.267,1.802-.754,2.589l-1.478-1.478c.148-.354,.232-.727,.232-1.111,0-1.07-.591-2.067-1.543-2.603l-.618-.348s.161-.929,.161-1.05c0-1.103-.897-2-2-2h-1v-1c0-1.103-.897-2-2-2Zm-4,2c0-1.103-.897-2-2-2s-2,.897-2,2v1h-1c-1.103,0-2,.897-2,2,0,.121,.161,1.05,.161,1.05l-.618,.348c-.952,.535-1.543,1.533-1.543,2.603,0,.675,.234,1.322,.679,1.872l.507,.628-.507,.629c-.444,.549-.679,1.196-.679,1.871,0,1.096,.611,2.104,1.597,2.631l.399,.215,.103,.442c.368,1.597,1.768,2.712,3.401,2.712,1.93,0,3.5-1.57,3.5-3.5V4Z"></path>
  </symbol>
</svg>