<svg width="0" height="0" class="hidden">
  <symbol xmlns="http://www.w3.org/2000/svg" id="health-coaching" viewBox="0 0 24 24">
    <path d="m5,4c0-.552.448-1,1-1h2V1c0-.552.448-1,1-1s1,.448,1,1v2h2c.552,0,1,.448,1,1s-.448,1-1,1h-2v2c0,.552-.448,1-1,1s-1-.448-1-1v-2h-2c-.552,0-1-.448-1-1Zm18.236,9.015l-6.805,7.637c-1.896,2.128-4.617,3.348-7.466,3.348h-4.965c-2.206,0-4-1.794-4-4v-5c0-2.206,1.794-4,4-4h8.858c1.139,0,2.138.609,2.689,1.518l3.216-3.534c.542-.595,1.282-.944,2.086-.981.803-.045,1.573.24,2.168.782,1.214,1.107,1.312,3.004.219,4.229Zm-1.566-2.751c-.199-.181-.459-.267-.728-.262-.27.013-.518.129-.7.329l-4.426,4.864c-.385,1.071-1.339,1.891-2.514,2.059l-5.161.737c-.545.079-1.053-.301-1.131-.848-.078-.547.302-1.053.848-1.131l5.161-.737c.559-.08.981-.566.981-1.131,0-.63-.512-1.142-1.142-1.142H4c-1.103,0-2,.897-2,2v5c0,1.103.897,2,2,2h4.965c2.279,0,4.457-.976,5.973-2.678l6.805-7.638c.367-.412.334-1.049-.073-1.421Z"></path>
  </symbol>
  <symbol xmlns="http://www.w3.org/2000/svg" id="small-group" viewBox="0 0 24 24">
    <path d="M12,16a4,4,0,1,1,4-4A4,4,0,0,1,12,16Zm0-6a2,2,0,1,0,2,2A2,2,0,0,0,12,10Zm6,13A6,6,0,0,0,6,23a1,1,0,0,0,2,0,4,4,0,0,1,8,0,1,1,0,0,0,2,0ZM18,8a4,4,0,1,1,4-4A4,4,0,0,1,18,8Zm0-6a2,2,0,1,0,2,2A2,2,0,0,0,18,2Zm6,13a6.006,6.006,0,0,0-6-6,1,1,0,0,0,0,2,4,4,0,0,1,4,4,1,1,0,0,0,2,0ZM6,8a4,4,0,1,1,4-4A4,4,0,0,1,6,8ZM6,2A2,2,0,1,0,8,4,2,2,0,0,0,6,2ZM2,15a4,4,0,0,1,4-4A1,1,0,0,0,6,9a6.006,6.006,0,0,0-6,6,1,1,0,0,0,2,0Z"></path>
  </symbol>
  <symbol id="training" xmlns="http://www.w3.org/2000/svg" viewBox="0 0 24 24">
    <path d="m22.942 6.837-2.182-2.183.947-.947a1 1 0 1 0 -1.414-1.414l-.947.947-2.183-2.182a3.7 3.7 0 0 0 -5.105 0 3.609 3.609 0 0 0 0 5.106l2.182 2.182-5.894 5.894-2.183-2.182a3.7 3.7 0 0 0 -5.105 0 3.609 3.609 0 0 0 0 5.106l2.182 2.182-.947.947a1 1 0 1 0 1.414 1.414l.947-.947 2.183 2.182a3.609 3.609 0 0 0 5.105 0 3.608 3.608 0 0 0 0-5.105l-2.182-2.182 5.9-5.895 2.182 2.182a3.609 3.609 0 0 0 5.105 0 3.608 3.608 0 0 0 0-5.105zm-11.942 13.553a1.6 1.6 0 0 1 -.472 1.138 1.647 1.647 0 0 1 -2.277 0l-5.779-5.779a1.61 1.61 0 1 1 2.277-2.277l5.779 5.779a1.6 1.6 0 0 1 .472 1.139zm10.528-9.862a1.647 1.647 0 0 1 -2.277 0l-5.779-5.779a1.61 1.61 0 1 1 2.277-2.277l5.779 5.779a1.609 1.609 0 0 1 0 2.277z"></path>
  </symbol>
  <symbol id="programming" xmlns="http://www.w3.org/2000/svg" viewBox="0 0 24 24">
    <path d="m19 1h-14a5.006 5.006 0 0 0 -5 5v12a5.006 5.006 0 0 0 5 5h14a5.006 5.006 0 0 0 5-5v-12a5.006 5.006 0 0 0 -5-5zm-14 2h14a3 3 0 0 1 3 3v1h-20v-1a3 3 0 0 1 3-3zm14 18h-14a3 3 0 0 1 -3-3v-9h20v9a3 3 0 0 1 -3 3zm0-8a1 1 0 0 1 -1 1h-12a1 1 0 0 1 0-2h12a1 1 0 0 1 1 1zm-4 4a1 1 0 0 1 -1 1h-8a1 1 0 0 1 0-2h8a1 1 0 0 1 1 1zm-12-12a1 1 0 1 1 1 1 1 1 0 0 1 -1-1zm3 0a1 1 0 1 1 1 1 1 1 0 0 1 -1-1zm3 0a1 1 0 1 1 1 1 1 1 0 0 1 -1-1z"></path>
  </symbol>
  <symbol xmlns="http://www.w3.org/2000/svg" id="most-popular" viewBox="0 0 24 24">
    <path d="M9.02,17.35c-.19,0-.39-.06-.55-.18-.31-.23-.44-.64-.32-1.01l.86-2.76-2.18-1.77c-.29-.25-.4-.65-.27-1.01,.13-.36,.48-.6,.86-.6h2.75l.97-2.61c.13-.36,.48-.6,.86-.6s.73,.24,.86,.6l.97,2.61h2.75c.38,0,.73,.24,.86,.6s.02,.77-.27,1.02l-2.17,1.77,.9,2.73c.12,.37,0,.78-.31,1.01-.31,.24-.73,.25-1.06,.04l-2.52-1.64-2.48,1.66c-.15,.1-.33,.15-.51,.15Zm2.98,6.65C5.38,24,0,18.62,0,12S5.38,0,12,0s12,5.38,12,12-5.38,12-12,12Zm0-22C6.49,2,2,6.49,2,12s4.49,10,10,10,10-4.49,10-10S17.51,2,12,2Z"></path>
  </symbol>
  <symbol xmlns="http://www.w3.org/2000/svg" id="check-circle" viewBox="0 0 24 24">
    <path d="m16.298,8.288l1.404,1.425-5.793,5.707c-.387.387-.896.58-1.407.58s-1.025-.195-1.416-.585l-2.782-2.696,1.393-1.437,2.793,2.707,5.809-5.701Zm7.702,3.712c0,6.617-5.383,12-12,12S0,18.617,0,12,5.383,0,12,0s12,5.383,12,12Zm-2,0c0-5.514-4.486-10-10-10S2,6.486,2,12s4.486,10,10,10,10-4.486,10-10Z"></path>
  </symbol>
</svg>